<svg xmlns="http://www.w3.org/2000/svg" viewBox="0 0 64 64" width="64" height="64">
  <defs>
    <linearGradient id="ssmBg" x1="0%" y1="0%" x2="100%" y2="100%">
      <stop offset="0%" style="stop-color:#3F8624;stop-opacity:1" />
      <stop offset="100%" style="stop-color:#35711E;stop-opacity:1" />
    </linearGradient>
  </defs>
  <rect x="2" y="2" width="60" height="60" rx="8" ry="8" fill="url(#ssmBg)" />
  <!-- Gear/cog icon for Systems Manager -->
  <g transform="translate(32,32)">
    <!-- Outer gear teeth -->
    <path d="M0,-20 L4,-18 L4,-14 L8,-12 L12,-14 L14,-10 L12,-6 L14,-2 L18,0 L18,4 L14,4 L12,8 L14,12 L10,14 L6,12 L2,14 L0,18 L-4,18 L-4,14 L-8,12 L-12,14 L-14,10 L-12,6 L-14,2 L-18,0 L-18,-4 L-14,-4 L-12,-8 L-14,-12 L-10,-14 L-6,-12 L-2,-14 L0,-18 Z" fill="none" stroke="white" stroke-width="2" />
    <!-- Inner circle -->
    <circle cx="0" cy="0" r="7" fill="none" stroke="white" stroke-width="2" />
    <!-- Center dot -->
    <circle cx="0" cy="0" r="3" fill="white" />
  </g>
  <!-- Small document/parameter icon -->
  <rect x="40" y="40" width="12" height="14" rx="1" fill="white" opacity="0.7" />
  <line x1="43" y1="44" x2="49" y2="44" stroke="#3F8624" stroke-width="1.5" />
  <line x1="43" y1="47" x2="49" y2="47" stroke="#3F8624" stroke-width="1.5" />
  <line x1="43" y1="50" x2="47" y2="50" stroke="#3F8624" stroke-width="1.5" />
</svg>
